<svg width="34" height="33" viewBox="0 0 34 33" fill="none" xmlns="http://www.w3.org/2000/svg">
<path d="M33.3501 16.5C33.3501 7.38633 25.9638 0 16.8501 0C7.73643 0 0.350098 7.38633 0.350098 16.5C0.350098 25.6137 7.73643 33 16.8501 33C16.9468 33 17.0435 33 17.1401 32.9936V20.1545H13.5952V16.023H17.1401V12.9809C17.1401 9.45527 19.2929 7.53457 22.4382 7.53457C23.9464 7.53457 25.2419 7.64414 25.6157 7.6957V11.3824H23.4501C21.7421 11.3824 21.4069 12.1945 21.4069 13.3869V16.0166H25.4997L24.9647 20.148H21.4069V32.3619C28.3034 30.3832 33.3501 24.0346 33.3501 16.5V16.5Z" fill="#9E9E9E"/>
</svg>
