<svg width="28" height="25" viewBox="0 0 28 25" fill="none" xmlns="http://www.w3.org/2000/svg">
<path d="M14 24.911C13.6014 24.911 13.217 24.7666 12.9175 24.5043C11.7864 23.5152 10.6959 22.5857 9.73372 21.7658L9.7288 21.7616C6.90792 19.3577 4.47198 17.2817 2.77709 15.2367C0.882475 12.9505 0 10.7828 0 8.41483C0 6.11411 0.788908 3.99155 2.22125 2.43787C3.67068 0.865814 5.6595 0 7.82201 0C9.43828 0 10.9185 0.510986 12.2214 1.51865C12.8789 2.02728 13.4749 2.64978 14 3.37589C14.5253 2.64978 15.1211 2.02728 15.7788 1.51865C17.0817 0.510986 18.5619 0 20.1782 0C22.3404 0 24.3295 0.865814 25.7789 2.43787C27.2113 3.99155 27.9999 6.11411 27.9999 8.41483C27.9999 10.7828 27.1177 12.9505 25.2231 15.2365C23.5282 17.2817 21.0925 19.3575 18.272 21.7611C17.3081 22.5823 16.2159 23.5133 15.0822 24.5047C14.7829 24.7666 14.3984 24.911 14 24.911ZM7.82201 1.6402C6.12307 1.6402 4.56234 2.31824 3.42693 3.54956C2.27465 4.79947 1.63998 6.52725 1.63998 8.41483C1.63998 10.4064 2.38018 12.1876 4.03982 14.1901C5.64391 16.1258 8.02986 18.159 10.7924 20.5134L10.7976 20.5176C11.7633 21.3407 12.8582 22.2738 13.9976 23.2702C15.1439 22.2719 16.2404 21.3373 17.2082 20.5129C19.9705 18.1586 22.3563 16.1258 23.9603 14.1901C25.6198 12.1876 26.36 10.4064 26.36 8.41483C26.36 6.52725 25.7253 4.79947 24.573 3.54956C23.4378 2.31824 21.8769 1.6402 20.1782 1.6402C18.9336 1.6402 17.7909 2.03583 16.782 2.81598C15.8828 3.51154 15.2565 4.39081 14.8893 5.00604C14.7004 5.32242 14.368 5.51126 14 5.51126C13.6319 5.51126 13.2995 5.32242 13.1107 5.00604C12.7437 4.39081 12.1173 3.51154 11.218 2.81598C10.209 2.03583 9.06636 1.6402 7.82201 1.6402Z" fill="#E63946"/>
</svg>
