<svg width="33" height="33" viewBox="0 0 33 33" fill="none" xmlns="http://www.w3.org/2000/svg">
<path d="M32.9161 9.70212C32.8388 7.9487 32.5552 6.74323 32.1489 5.69869C31.7298 4.58992 31.085 3.59725 30.2403 2.77203C29.4149 1.93398 28.4155 1.28277 27.3194 0.87029C26.2686 0.464104 25.0692 0.180555 23.3154 0.103246C21.5486 0.0193901 20.9877 0 16.5064 0C12.0252 0 11.4643 0.0193901 9.70397 0.0966989C7.95021 0.174008 6.74452 0.457809 5.70002 0.863743C4.5908 1.28277 3.59793 1.92743 2.77256 2.77203C1.93435 3.59725 1.28327 4.59647 0.870456 5.69239C0.464193 6.74323 0.180589 7.94215 0.103266 9.69557C0.0193938 11.4621 0 12.0229 0 16.5033C0 20.9837 0.0193938 21.5445 0.0967173 23.3044C0.174041 25.0578 0.457896 26.2633 0.864159 27.3079C1.28327 28.4166 1.93435 29.4093 2.77256 30.2345C3.59793 31.0726 4.59735 31.7238 5.69348 32.1363C6.74452 32.5424 7.94367 32.826 9.69767 32.9033C11.4577 32.9809 12.0189 33 16.5001 33C20.9814 33 21.5423 32.9809 23.3026 32.9033C25.0563 32.826 26.262 32.5424 27.3065 32.1363C29.5247 31.2788 31.2785 29.5254 32.1361 27.3079C32.5421 26.257 32.826 25.0578 32.9033 23.3044C32.9806 21.5445 33 20.9837 33 16.5033C33 12.0229 32.9935 11.4621 32.9161 9.70212ZM29.9438 23.1755C29.8728 24.7871 29.602 25.6574 29.3764 26.2376C28.8218 27.6753 27.6805 28.8163 26.2426 29.3708C25.6623 29.5964 24.7856 29.8671 23.1799 29.9379C21.439 30.0154 20.9169 30.0346 16.513 30.0346C12.1091 30.0346 11.5804 30.0154 9.84577 29.9379C8.23382 29.8671 7.36336 29.5964 6.78306 29.3708C6.0675 29.1064 5.41617 28.6873 4.8875 28.1394C4.33943 27.6043 3.92033 26.9596 3.65586 26.2442C3.43019 25.664 3.15943 24.7871 3.08866 23.182C3.01108 21.4415 2.99194 20.9192 2.99194 16.5161C2.99194 12.113 3.01108 11.5845 3.08866 9.85044C3.15943 8.23879 3.43019 7.3685 3.65586 6.78831C3.92033 6.07264 4.33943 5.42168 4.89405 4.89286C5.42902 4.3449 6.0738 3.92587 6.78961 3.66171C7.36991 3.43608 8.24691 3.16538 9.85232 3.09436C11.5932 3.01705 12.1156 2.99766 16.5193 2.99766C20.9297 2.99766 21.4519 3.01705 23.1865 3.09436C24.7984 3.16538 25.6689 3.43608 26.2492 3.66171C26.9647 3.92587 27.6161 4.3449 28.1447 4.89286C28.6928 5.42798 29.1119 6.07264 29.3764 6.78831C29.602 7.3685 29.8728 8.24509 29.9438 9.85044C30.0212 11.591 30.0405 12.113 30.0405 16.5161C30.0405 20.9192 30.0212 21.4349 29.9438 23.1755Z" fill="#9E9E9E"/>
<path d="M16.5003 7.61523C11.5954 7.61523 7.61572 11.5946 7.61572 16.4998C7.61572 21.4051 11.5954 25.3845 16.5003 25.3845C21.4056 25.3845 25.385 21.4051 25.385 16.4998C25.385 11.5946 21.4056 7.61523 16.5003 7.61523ZM16.5003 22.2631C13.3183 22.2631 10.7371 19.6822 10.7371 16.4998C10.7371 13.3175 13.3183 10.7366 16.5003 10.7366C19.6827 10.7366 22.2636 13.3175 22.2636 16.4998C22.2636 19.6822 19.6827 22.2631 16.5003 22.2631V22.2631Z" fill="#9E9E9E"/>
<path d="M27.9231 8.25004C27.9231 9.3014 26.7865 10.1539 25.3845 10.1539C23.9828 10.1539 22.8462 9.3014 22.8462 8.25004C22.8462 7.19843 23.9828 6.34619 25.3845 6.34619C26.7865 6.34619 27.9231 7.19843 27.9231 8.25004V8.25004Z" fill="#9E9E9E"/>
</svg>
