<svg width="34" height="33" viewBox="0 0 34 33" fill="none" xmlns="http://www.w3.org/2000/svg">
<path fill-rule="evenodd" clip-rule="evenodd" d="M29.0421 4.79572C25.9399 1.70479 21.8143 0.00181274 17.4191 0C8.36241 0 0.991564 7.33537 0.987921 16.3512C0.986707 19.2332 1.74322 22.0466 3.18116 24.5264L0.850098 33L9.56052 30.726C11.9606 32.029 14.6626 32.7156 17.4124 32.7164H17.4193C26.475 32.7164 33.8467 25.3804 33.8501 16.3642C33.8519 11.9947 32.1444 7.88644 29.0421 4.79572ZM17.4191 29.9548H17.4134C14.963 29.9538 12.5597 29.2984 10.4625 28.0603L9.96408 27.7656L4.79518 29.1151L6.17483 24.0996L5.85001 23.5854C4.4829 21.4214 3.76099 18.9202 3.76221 16.3522C3.76504 8.85848 9.89162 2.76182 17.4246 2.76182C21.0724 2.76302 24.5014 4.17858 27.0797 6.74764C29.6581 9.3167 31.0772 12.7315 31.076 16.3632C31.0728 23.8575 24.9466 29.9548 17.4191 29.9548V29.9548ZM24.9102 19.7754C24.4997 19.5708 22.4812 18.5826 22.1047 18.4461C21.7287 18.3097 21.4547 18.2418 21.1812 18.6507C20.9074 19.0596 20.1207 19.9801 19.8811 20.2526C19.6415 20.5253 19.4023 20.5595 18.9916 20.3549C18.581 20.1505 17.2582 19.7188 15.6899 18.3268C14.4696 17.2434 13.6457 15.9054 13.406 15.4965C13.1668 15.0873 13.404 14.8875 13.5862 14.6627C14.0306 14.1134 14.4756 13.5376 14.6124 13.2651C14.7495 12.9923 14.6808 12.7537 14.578 12.5492C14.4756 12.3448 13.6546 10.3336 13.3125 9.5153C12.979 8.7189 12.6408 8.82645 12.3886 8.81396C12.1494 8.80208 11.8756 8.79966 11.6018 8.79966C11.3281 8.79966 10.8833 8.90178 10.5069 9.31106C10.1306 9.72014 9.07014 10.7085 9.07014 12.7196C9.07014 14.7308 10.5413 16.6736 10.7465 16.9463C10.9517 17.2191 13.6416 21.3461 17.7599 23.1157C18.7395 23.5371 19.5041 23.7882 20.1005 23.9766C21.0841 24.2875 21.9788 24.2436 22.6864 24.1385C23.4753 24.0211 25.1152 23.15 25.4576 22.1956C25.7996 21.2411 25.7996 20.4232 25.6968 20.2526C25.5944 20.0822 25.3206 19.9801 24.9102 19.7754V19.7754Z" fill="#9E9E9E"/>
</svg>
