<svg width="28" height="20" viewBox="0 0 28 20" fill="none" xmlns="http://www.w3.org/2000/svg">
<path d="M27.4231 3.12952C27.1004 1.90578 26.1547 0.941123 24.9553 0.611608C22.7642 0 13.9997 0 13.9997 0C13.9997 0 5.23548 0 3.04439 0.58842C1.86809 0.917586 0.899269 1.90596 0.576612 3.12952C0 5.36465 0 10 0 10C0 10 0 14.6587 0.576612 16.8705C0.899611 18.094 1.84502 19.0587 3.04456 19.3882C5.25855 20 14 20 14 20C14 20 22.7642 20 24.9553 19.4116C26.1549 19.0822 27.1004 18.1176 27.4234 16.894C27.9999 14.6587 27.9999 10.0235 27.9999 10.0235C27.9999 10.0235 28.023 5.36465 27.4231 3.12952ZM11.2093 14.2823V5.7177L18.4974 10L11.2093 14.2823Z" fill="#9E9E9E"/>
</svg>
